<?xml version="1.0" standalone="no"?>
<!DOCTYPE svg PUBLIC "-//W3C//DTD SVG 20010904//EN"
 "http://www.w3.org/TR/2001/REC-SVG-20010904/DTD/svg10.dtd">
<svg version="1.0" xmlns="http://www.w3.org/2000/svg"
 width="779.000000pt" height="178.000000pt" viewBox="0 0 779.000000 178.000000"
 preserveAspectRatio="xMidYMid meet">

<g transform="translate(0.000000,178.000000) scale(0.100000,-0.100000)"
fill="#000000" stroke="none">
<path d="M905 1644 c-65 -11 -174 -48 -245 -85 -258 -131 -421 -395 -421 -684
0 -314 163 -579 437 -711 108 -52 208 -74 335 -74 237 0 423 79 583 248 78 83
83 96 19 52 l-58 -41 -3 212 c-1 136 -6 217 -13 226 -14 16 -71 17 -87 1 -8
-8 -12 -49 -12 -120 l0 -108 -55 0 c-54 0 -55 1 -55 29 0 17 -6 31 -16 35 -9
3 -94 6 -190 6 l-174 0 0 -35 0 -35 -60 0 -59 0 -3 118 -3 117 -41 3 c-25 2
-45 -2 -52 -11 -7 -8 -13 -65 -14 -141 l-3 -128 -37 64 c-69 118 -83 175 -82
333 0 132 1 144 30 216 82 205 224 335 434 400 94 29 269 32 339 5 24 -9 46
-15 48 -13 6 7 -174 86 -232 102 -60 16 -253 28 -310 19z m-107 -932 c3 -39 1
-42 -22 -42 -23 0 -26 4 -26 38 0 43 7 54 30 50 10 -2 16 -17 18 -46z m721 34
c7 -8 11 -27 9 -43 -2 -22 -8 -28 -28 -28 -20 0 -26 6 -28 28 -3 27 12 57 28
57 4 0 13 -6 19 -14z m-339 -202 l40 -27 0 -118 0 -119 -66 0 c-102 0 -104 2
-104 124 l0 104 42 31 c23 17 43 31 45 31 2 0 21 -12 43 -26z m-268 -91 c23
-20 26 -103 4 -103 -22 0 -76 50 -76 70 0 11 10 26 22 34 28 20 27 20 50 -1z
m496 1 c20 -14 23 -23 20 -67 l-3 -52 -40 0 -40 0 -3 49 c-2 35 2 53 14 67 21
23 24 23 52 3z"/>
<path d="M1989 1562 c-42 -21 -59 -38 -76 -72 -54 -105 -14 -180 135 -255 76
-39 97 -61 85 -92 -20 -52 -91 -57 -173 -12 -62 34 -61 34 -101 -43 l-19 -37
28 -19 c46 -32 122 -52 196 -52 137 1 216 67 216 181 0 78 -43 122 -182 188
-70 33 -87 56 -68 91 20 37 79 35 176 -6 15 -6 60 94 48 106 -18 18 -127 50
-169 50 -27 0 -63 -10 -96 -28z"/>
<path d="M4130 1285 l0 -295 65 0 65 0 0 111 c0 66 4 108 9 104 6 -3 46 -53
91 -110 l81 -105 85 0 85 0 -100 119 -100 118 36 24 c52 34 75 71 81 127 6 65
-11 114 -53 151 -43 37 -107 51 -240 51 l-105 0 0 -295z m234 164 c49 -38 31
-111 -32 -129 -72 -19 -72 -19 -72 70 l0 80 39 0 c24 0 48 -8 65 -21z"/>
<path d="M2380 1350 c0 -236 5 -267 53 -318 42 -45 76 -56 172 -57 112 0 165
25 205 95 24 44 25 51 28 273 l3 227 -64 0 -65 0 -4 -197 c-4 -223 -10 -251
-65 -267 -51 -14 -95 3 -115 44 -15 30 -18 64 -18 228 l0 192 -65 0 -65 0 0
-220z"/>
<path d="M2960 1276 l0 -296 103 0 c63 0 123 6 153 15 73 22 143 80 178 148
57 112 32 263 -56 343 -70 63 -117 78 -255 82 l-123 4 0 -296z m224 160 c83
-35 122 -157 77 -243 -26 -53 -71 -84 -127 -91 l-44 -5 0 177 0 176 30 0 c17
0 46 -6 64 -14z"/>
<path d="M3697 1558 c-3 -7 -55 -136 -116 -287 -61 -151 -111 -278 -111 -283
0 -4 31 -8 69 -8 l68 0 22 60 22 61 116 -3 116 -3 20 -57 19 -58 69 0 c38 0
69 4 69 8 0 4 -51 136 -114 292 l-115 285 -64 3 c-46 2 -66 -1 -70 -10z m102
-249 c17 -44 31 -83 31 -85 0 -2 -30 -4 -66 -4 -59 0 -65 2 -60 18 23 61 60
152 62 152 1 0 16 -36 33 -81z"/>
<path d="M3003 842 c-126 -45 -206 -157 -206 -292 0 -119 40 -203 127 -265 79
-56 200 -69 292 -30 53 22 129 100 155 158 31 72 32 191 0 263 -25 58 -87 123
-147 153 -59 31 -156 36 -221 13z m177 -141 c38 -26 70 -97 70 -156 0 -59 -31
-129 -71 -158 -36 -26 -117 -26 -161 0 -96 55 -103 245 -12 310 50 36 126 37
174 4z"/>
<path d="M3672 842 c-76 -28 -122 -69 -162 -147 -32 -61 -35 -76 -35 -149 0
-97 29 -169 91 -231 59 -58 115 -80 204 -80 62 0 84 5 125 27 100 52 144 128
145 246 l0 72 -141 0 -140 0 3 -52 3 -53 68 -3 c56 -2 67 -6 67 -20 0 -25 -27
-60 -60 -77 -102 -53 -219 35 -220 163 0 176 166 262 270 139 14 -17 18 -15
60 28 l45 47 -44 39 c-70 62 -186 84 -279 51z"/>
<path d="M4339 854 c-50 -9 -133 -68 -167 -118 -113 -169 -57 -398 118 -480
68 -31 179 -29 245 6 100 52 144 128 145 246 l0 72 -141 0 -140 0 3 -52 3 -53
68 -3 c56 -2 67 -6 67 -20 0 -25 -27 -60 -60 -77 -102 -53 -219 35 -220 163 0
176 166 262 270 139 14 -17 18 -15 60 28 l45 47 -44 39 c-24 21 -60 43 -80 49
-44 13 -136 20 -172 14z"/>
<path d="M1850 545 l0 -307 148 4 c134 3 151 6 191 28 107 61 109 222 3 275
l-40 20 28 32 c62 69 43 190 -36 228 -30 15 -67 20 -166 23 l-128 4 0 -307z
m196 189 c29 -8 46 -47 34 -78 -11 -29 -38 -46 -74 -46 -25 0 -26 2 -26 65 0
61 1 65 23 65 12 0 32 -3 43 -6z m59 -265 c28 -29 29 -66 1 -93 -20 -21 -35
-26 -76 -26 l-50 0 0 71 0 71 56 -4 c30 -3 61 -11 69 -19z"/>
<path d="M2370 545 l0 -305 170 0 170 0 0 60 0 60 -100 0 -100 0 0 245 0 245
-70 0 -70 0 0 -305z"/>
<path d="M4780 545 l0 -305 170 0 170 0 0 60 0 60 -100 0 -100 0 0 65 0 65 95
0 95 0 0 60 0 60 -95 0 -95 0 0 60 0 60 100 0 100 0 0 60 0 60 -170 0 -170 0
0 -305z"/>
<path d="M5240 545 l0 -305 70 0 69 0 3 117 3 116 88 -116 87 -117 86 0 c68 0
84 3 77 13 -6 6 -52 63 -103 125 -51 62 -91 114 -89 116 2 2 18 11 36 19 84
44 110 192 46 268 -48 56 -91 69 -240 69 l-133 0 0 -305z m241 176 c18 -14 24
-29 24 -61 0 -53 -29 -80 -86 -80 l-39 0 0 80 0 80 39 0 c23 0 48 -8 62 -19z"/>
</g>
</svg>
